# xmcd
#
# Track frame offsets: 
#        150
#        7490
#        20991
#        32995
#        45080
#        60611
#        73017
#        85112
#        107240
#        121117
#        134454
#        147668
#        158781
#        173716
#        188229
#        200843
#        215242
#        229459
#        242115
#        256012
#        267242
#        280825
#        294023
#        308165
#        322319
#
# Disc length: 4495 seconds
#
# Revision: 0
# Processed by: cddbd v1.5.2PL0 Copyright (c) Steve Scherf et al.
# Submitted via: ExactAudioCopyFreeDBPlugin 1.0
#
DISCID=86118d19
DTITLE=Diverse - The Blues - CD2 Rural and Old Time Blues
DYEAR=2014
DGENRE=Blues
TTITLE0=Vera Hall - Trouble So Hard
TTITLE1=Robert Johnson - Sweet Home Chicago
TTITLE2=Bukka White - Parchman Farm Blues
TTITLE3=Bertha Chippie Hill - Trouble In Mind
TTITLE4=Bessie Smith - Gimme A Pigfoot And A Bottle Of Beer
TTITLE5=Mississippi John Hurt - Candy Man Blues
TTITLE6=Sonny Terry - Whooping The Blues
TTITLE7=Son House - Low Down Dirty Dog Blues
TTITLE8=Leadbelly - Midnight Special
TTITLE9=Lucille Bogan - Baking Powder Blues
TTITLE10=Lil Green - Why Don't You Do Right
TTITLE11=Lightnin' Hopkins - Lightning Blues
TTITLE12=Mississippi Fred McDowell - Shake 'Em on Down
TTITLE13=Victoria Spivey - Garter Snake Blues
TTITLE14=Furry Lewis - Falling Down Blues
TTITLE15=Lonnie Johnson - Rackateer Blues
TTITLE16=Ma Rainey - Ma Rainey's Black Bottom
TTITLE17=Skip James - I'm So Glad
TTITLE18=Clara Smith - Gin Mill Blues
TTITLE19=Blind Willie McTell - Statesboro' Blues
TTITLE20=Big Bill Broonzy - Key To The Highway
TTITLE21=Blind Lemon Jefferson - Rabbit Foot Blues
TTITLE22=Memphis Minnie - When The Levee Breaks
TTITLE23=Charly Patton - Spoonful Blues
TTITLE24=Blind Willie Johnson - Dark Was The Night
EXTD=
EXTT0=
EXTT1=
EXTT2=
EXTT3=
EXTT4=
EXTT5=
EXTT6=
EXTT7=
EXTT8=
EXTT9=
EXTT10=
EXTT11=
EXTT12=
EXTT13=
EXTT14=
EXTT15=
EXTT16=
EXTT17=
EXTT18=
EXTT19=
EXTT20=
EXTT21=
EXTT22=
EXTT23=
EXTT24=
PLAYORDER=
